<?xml version="1.0" encoding="UTF-8"?> <svg xmlns="http://www.w3.org/2000/svg" width="125" height="48" viewBox="0 0 125 48" fill="none"><g clip-path="url(#clip0_2688_2446)"><path d="M46.5865 22.014H42.1917L35.9697 29.6743V17.8576L31.9404 18.5952V39.4389H35.9697V30.8754L42.4954 39.4389H47.1513L39.8282 30.0101L46.5865 22.014Z" fill="#282D4D"></path><path d="M55.2147 21.6499C51.3135 21.6499 48.091 23.3475 47.7587 27.4093H51.66C51.864 25.6787 52.8939 24.6809 54.9964 24.6809C57.3599 24.6809 58.1572 25.8442 58.1572 28.1801V29.0785H55.993C51.0003 29.0785 47.0706 30.5444 47.0706 34.6063C47.0706 38.2331 49.6999 39.7699 52.8987 39.7699C55.5659 39.7699 57.0894 38.8005 58.2237 37.3015V39.4341H62.1866V28.0099C62.1866 23.2482 59.1254 21.6405 55.2242 21.6405H55.2147V21.6499ZM58.143 33.3437C58.143 35.5756 56.3158 36.8712 53.8479 36.8712C51.845 36.8712 51.0477 35.9019 51.0477 34.436C51.0477 32.3034 53.0078 31.6036 56.0785 31.6036H58.1382V33.3437H58.143Z" fill="#282D4D"></path><path d="M77.3927 24.6809C76.4245 22.9503 74.6638 21.6499 71.8352 21.6499C67.3075 21.6499 64.0043 25.1774 64.0043 30.7477V31.0125C64.0043 36.6726 67.298 39.7746 71.6643 39.7746C74.2319 39.7746 76.4625 38.2378 77.3927 36.5119V39.4436H81.422V15.9709H77.3927V24.6857V24.6809ZM77.5256 30.8045C77.5256 34.7056 75.4658 36.5639 72.6657 36.5639C70.0696 36.5639 68.138 34.7339 68.138 30.9038V30.639C68.138 26.8797 69.8656 24.8086 72.8366 24.8086C75.8075 24.8086 77.5351 26.7095 77.5351 30.5397V30.8045H77.5256Z" fill="#282D4D"></path><path d="M88.6787 22.014H84.6493V39.4389H88.6787V22.014Z" fill="#282D4D"></path><path d="M98.8019 21.6499C94.9007 21.6499 91.6781 23.3475 91.3459 27.4093H95.2471C95.4512 25.6787 96.4811 24.6809 98.5835 24.6809C100.947 24.6809 101.744 25.8442 101.744 28.1801V29.0785H99.5802C94.5874 29.0785 90.6577 30.5444 90.6577 34.6063C90.6577 38.2331 93.287 39.7699 96.4858 39.7699C99.1531 39.7699 100.677 38.8005 101.811 37.3015V39.4341H105.774V28.0099C105.774 23.2482 102.713 21.6405 98.8113 21.6405H98.8019V21.6499ZM101.73 33.3437C101.73 35.5756 99.9029 36.8712 97.435 36.8712C95.437 36.8712 94.6349 35.9019 94.6349 34.436C94.6349 32.3034 96.6045 31.6036 99.6656 31.6036H101.725V33.3437H101.73Z" fill="#282D4D"></path><path d="M118.384 21.6499C115.522 21.6499 113.586 23.0874 112.755 24.785V22.014H108.726V39.4389H112.755V29.1778C112.755 26.4069 114.582 25.0119 116.846 25.0119C119.238 25.0119 120.311 26.213 120.311 28.8421V39.4341H124.34V28.478C124.34 23.6785 121.877 21.6452 118.379 21.6452L118.384 21.6499Z" fill="#282D4D"></path><path d="M88.6787 15.6446H84.5259V20.0516H88.6787V15.6446Z" fill="#282D4D"></path><path d="M18.2529 13.7343L5.10181 39.4389H9.49659L11.2953 35.8924L16.739 35.325V31.3104L13.4405 31.6651L18.2624 22.2457L23.0891 31.6651L19.7906 31.3104V35.325L25.2248 35.8924L27.0235 39.4389H30.8535L18.2529 13.7343Z" fill="#282D4D"></path><path d="M18.8227 9.80951H17.1474C17.0572 9.80951 16.9765 9.73858 16.967 9.64873L15.7188 0.290854C15.7093 0.191553 15.79 0.0875244 15.8992 0.0875244H20.0614C20.1706 0.0875244 20.2512 0.186825 20.2417 0.290854L18.9983 9.64873C18.9888 9.73858 18.9081 9.80951 18.8179 9.80951H18.8227Z" fill="#F57A47"></path><path d="M13.6591 10.9444L12.3065 11.9326C12.2353 11.9847 12.1356 11.9752 12.0739 11.9137L5.56715 5.07146C5.49596 4.99107 5.50545 4.86813 5.58613 4.7972L8.95104 2.35252C9.04121 2.29105 9.16461 2.30996 9.21207 2.41399L13.7065 10.7127C13.7492 10.7931 13.7255 10.8924 13.6543 10.9444H13.6591Z" fill="#F57A47"></path><path d="M10.1518 14.888L9.63446 16.4863C9.60598 16.5761 9.5253 16.6281 9.43038 16.6092L0.147227 14.8975C0.0380694 14.8786 -0.0236285 14.7651 0.00484745 14.6658L1.28626 10.7032C1.31474 10.6039 1.43814 10.5519 1.5378 10.5897L10.0569 14.661C10.1375 14.7036 10.1802 14.7934 10.147 14.8833L10.1518 14.888Z" fill="#F57A47"></path><path d="M26.3356 16.491L25.8183 14.8927C25.7898 14.8029 25.8278 14.7131 25.9085 14.6705L34.4275 10.5992C34.5272 10.5472 34.6411 10.5992 34.679 10.7127L35.9605 14.6752C35.9889 14.7745 35.932 14.888 35.8181 14.9069L26.5444 16.6139C26.4542 16.6329 26.3736 16.5714 26.3403 16.491H26.3308H26.3356Z" fill="#F57A47"></path><path d="M23.6589 11.9232L22.3062 10.9349C22.2351 10.8829 22.2161 10.7836 22.254 10.7032L26.7485 2.40453C26.8007 2.31469 26.9194 2.28159 27.0095 2.34306L30.3744 4.78774C30.4646 4.84921 30.4741 4.98162 30.3934 5.062L23.8867 11.9043C23.825 11.9657 23.7253 11.9752 23.6541 11.9232H23.6589Z" fill="#F57A47"></path><path d="M11.9552 43.1083H13.1132L14.6841 47.8463H13.7681L13.3885 46.6736H11.5755L11.2053 47.8463H10.3748L11.9647 43.1083H11.9552ZM11.7748 46.0306H13.1796L12.482 43.8318L11.7748 46.0306Z" fill="#9C9FAF"></path><path d="M15.4672 45.5057V45.4537C15.4672 44.0304 16.4496 43.0374 17.7738 43.0374C18.8653 43.0374 19.7101 43.5811 19.8145 44.6924H18.9175C18.8179 44.0635 18.4667 43.7372 17.7785 43.7372C16.9432 43.7372 16.3974 44.385 16.3974 45.4442V45.4962C16.3974 46.5602 16.91 47.1938 17.788 47.1938C18.4477 47.1938 18.9128 46.8628 19.003 46.1913H19.8667C19.7291 47.3309 18.9175 47.9078 17.788 47.9078C16.2977 47.9078 15.4672 46.9621 15.4672 45.5057Z" fill="#9C9FAF"></path><path d="M20.9631 45.5057V45.4537C20.9631 44.0304 21.9455 43.0374 23.2696 43.0374C24.3612 43.0374 25.206 43.5811 25.3104 44.6924H24.4134C24.3137 44.0635 23.9625 43.7372 23.2744 43.7372C22.4391 43.7372 21.8933 44.385 21.8933 45.4442V45.4962C21.8933 46.5602 22.4058 47.1938 23.2838 47.1938C23.9435 47.1938 24.4086 46.8628 24.4988 46.1913H25.3626C25.225 47.3309 24.4134 47.9078 23.2838 47.9078C21.7936 47.9078 20.9631 46.9621 20.9631 45.5057Z" fill="#9C9FAF"></path><path d="M26.4589 45.4537C26.4589 44.0682 27.4556 43.0421 28.8651 43.0421C30.2747 43.0421 31.2571 44.0398 31.2571 45.4347V45.4868C31.2571 46.8722 30.3079 47.9125 28.8651 47.9125C27.4223 47.9125 26.4589 46.8722 26.4589 45.5104V45.4537ZM30.3411 45.4915V45.4395C30.3411 44.4654 29.7953 43.7419 28.8651 43.7419C27.9349 43.7419 27.3844 44.4228 27.3844 45.4442V45.4962C27.3844 46.5318 28.0156 47.1985 28.8794 47.1985C29.7431 47.1985 30.3411 46.5176 30.3411 45.4915Z" fill="#9C9FAF"></path><path d="M32.6382 46.0447V43.1083H33.5304V45.9785C33.5304 46.8439 33.8104 47.2032 34.5129 47.2032C35.2153 47.2032 35.5427 46.9006 35.5427 45.9171V43.1083H36.435V45.988C36.435 47.2269 35.7658 47.9078 34.5081 47.9078C33.3169 47.9078 32.6382 47.26 32.6382 46.04V46.0447Z" fill="#9C9FAF"></path><path d="M38.0534 43.1083H39.1117L41.1145 46.5318V43.1083H41.9213V47.8463H41.0054L38.8649 44.2148V47.8463H38.0581V43.1083H38.0534Z" fill="#9C9FAF"></path><path d="M44.5269 43.8081H43.2028V43.113H46.7385V43.8081H45.4144V47.8463H44.5221V43.8081H44.5269Z" fill="#9C9FAF"></path><path d="M48.0484 43.1083H48.9407V47.8463H48.0484V43.1083Z" fill="#9C9FAF"></path><path d="M50.6302 43.1083H51.6886L53.6914 46.5318V43.1083H54.4982V47.8463H53.5822L51.4418 44.2148V47.8463H50.635V43.1083H50.6302Z" fill="#9C9FAF"></path><path d="M55.9125 45.5057V45.4537C55.9125 44.0445 56.8949 43.0374 58.2855 43.0374C59.3012 43.0374 60.2076 43.5008 60.331 44.6356H59.4483C59.3439 44.0067 58.9167 43.7325 58.2997 43.7325C57.3695 43.7325 56.8285 44.4228 56.8285 45.4631V45.5151C56.8285 46.5271 57.3031 47.2222 58.2997 47.2222C59.192 47.2222 59.5574 46.6878 59.5812 46.0306H58.3852V45.3685H60.4544V45.8036C60.4544 47.1134 59.6286 47.9078 58.2855 47.9078C56.7621 47.9078 55.9125 46.9006 55.9125 45.5057Z" fill="#9C9FAF"></path><path d="M64.0282 43.1083H66.9754V43.8081H64.9157V45.2172H66.5388V45.8981H64.9157V47.8369H64.0329V43.0988L64.0282 43.1083Z" fill="#9C9FAF"></path><path d="M68.0053 45.4537C68.0053 44.0682 69.002 43.0421 70.4115 43.0421C71.8211 43.0421 72.8035 44.0398 72.8035 45.4347V45.4868C72.8035 46.8722 71.8543 47.9125 70.4115 47.9125C68.9687 47.9125 68.0053 46.8722 68.0053 45.5104V45.4537ZM71.8875 45.4915V45.4395C71.8875 44.4654 71.3417 43.7419 70.4115 43.7419C69.4813 43.7419 68.9308 44.4228 68.9308 45.4442V45.4962C68.9308 46.5318 69.562 47.1985 70.4258 47.1985C71.2895 47.1985 71.8875 46.5176 71.8875 45.4915Z" fill="#9C9FAF"></path><path d="M74.2273 43.1083H75.8219C76.8661 43.1083 77.5969 43.5339 77.5969 44.4985V44.5269C77.5969 45.2692 77.1318 45.6475 76.5386 45.7988L77.877 47.8463H76.9183L75.6748 45.9312H75.11V47.8463H74.2273V43.1083ZM75.8219 45.3023C76.4152 45.3023 76.7237 45.0517 76.7237 44.5458V44.5174C76.7237 43.9736 76.3867 43.7892 75.8219 43.7892H75.11V45.2976H75.8219V45.3023Z" fill="#9C9FAF"></path><path d="M81.2988 43.1083H84.2698V43.8034H82.1816V45.1037H83.8569V45.7657H82.1816V47.1512H84.3837V47.8463H81.2988V43.1083Z" fill="#9C9FAF"></path><path d="M85.3614 43.1083H86.2868L87.5256 46.9479L88.769 43.1083H89.5995L87.9906 47.8463H86.9655L85.3614 43.1083Z" fill="#9C9FAF"></path><path d="M90.862 43.1083H93.833V43.8034H91.7447V45.1037H93.4201V45.7657H91.7447V47.1512H93.9469V47.8463H90.862V43.1083Z" fill="#9C9FAF"></path><path d="M95.3137 43.1083H96.9084C97.9525 43.1083 98.6834 43.5339 98.6834 44.4985V44.5269C98.6834 45.2692 98.2183 45.6475 97.625 45.7988L98.9634 47.8463H98.0047L96.7612 45.9312H96.1965V47.8463H95.3137V43.1083ZM96.9084 45.3023C97.5016 45.3023 97.8101 45.0517 97.8101 44.5458V44.5174C97.8101 43.9736 97.4731 43.7892 96.9084 43.7892H96.1965V45.2976H96.9084V45.3023Z" fill="#9C9FAF"></path><path d="M101.213 45.7941L99.6373 43.113H100.615L101.688 45.0754L102.732 43.113H103.595L102.105 45.8036V47.8511H101.213V45.7941Z" fill="#9C9FAF"></path><path d="M104.25 45.4537C104.25 44.0682 105.247 43.0421 106.657 43.0421C108.066 43.0421 109.049 44.0398 109.049 45.4347V45.4868C109.049 46.8722 108.099 47.9125 106.657 47.9125C105.214 47.9125 104.25 46.8722 104.25 45.5104V45.4537ZM108.133 45.4915V45.4395C108.133 44.4654 107.587 43.7419 106.657 43.7419C105.726 43.7419 105.176 44.4228 105.176 45.4442V45.4962C105.176 46.5318 105.807 47.1985 106.671 47.1985C107.535 47.1985 108.133 46.5176 108.133 45.4915Z" fill="#9C9FAF"></path><path d="M110.472 43.1083H111.531L113.534 46.5318V43.1083H114.34V47.8463H113.424L111.284 44.2148V47.8463H110.477V43.1083H110.472Z" fill="#9C9FAF"></path><path d="M115.992 43.1083H118.963V43.8034H116.875V45.1037H118.55V45.7657H116.875V47.1512H119.077V47.8463H115.992V43.1083Z" fill="#9C9FAF"></path></g><defs><clipPath id="clip0_2688_2446"><rect width="124.34" height="48" fill="white"></rect></clipPath></defs></svg> 