<?xml version="1.0" encoding="UTF-8"?> <svg xmlns="http://www.w3.org/2000/svg" width="49" height="48" viewBox="0 0 49 48" fill="none"><g id="Icon / empowerment" clip-path="url(#clip0_2724_13901)"><path id="icon-navy" d="M28.6646 15.9772C28.5783 15.3719 28.7508 14.7227 29.1414 14.2459C29.3138 14.0734 29.488 13.857 29.7044 13.7268C30.1795 13.4225 30.7408 13.25 31.3038 13.25C31.6065 13.25 31.8669 13.294 32.1695 13.3802C32.2135 13.3802 32.2135 13.3802 32.2557 13.4241C33.468 13.813 34.2035 14.983 34.1173 16.2375C34.031 17.536 33.8569 19.1372 33.6405 20.8684C33.5103 20.8245 33.3378 20.7382 33.2076 20.696C31.9953 20.3071 30.6969 20.3933 29.5286 20.9986C29.3121 21.1288 29.0517 21.259 28.7931 21.3452V20.3933C28.7491 18.8784 28.7491 17.4497 28.7069 16.3254C28.7069 16.1935 28.6646 16.1074 28.6646 15.9772ZM23.4706 22.9886C23.6008 22.9447 23.731 22.9024 23.9034 22.8584C25.2881 22.642 26.6729 22.2532 27.9713 21.7324C27.9274 19.7407 27.8851 17.8369 27.8412 16.322C27.7989 14.9812 26.8453 13.8991 25.5046 13.6827H25.3744H25.0717C24.3785 13.6827 23.687 13.9431 23.168 14.4622C22.5627 15.0674 22.2583 15.8908 22.3885 16.7125C22.6472 19.0069 23.08 21.2131 23.4706 22.9886ZM19.2285 26.4513C19.7475 27.4894 20.9598 28.0102 22.0419 27.5773H22.0859C22.4325 27.4471 22.7351 27.1884 22.9955 26.9281C22.6929 26.5815 22.4325 26.1926 22.3023 25.846C22.0419 25.2407 22.0419 24.5475 22.3462 23.9845C22.4325 23.812 22.5626 23.6379 22.6928 23.5077C22.3462 21.9488 21.9574 20.045 21.697 18.0111C21.2641 17.0153 20.2683 16.41 19.144 16.4523C19.0138 16.4523 18.8836 16.4523 18.7551 16.4962C17.9756 16.5824 17.2842 17.0592 16.8513 17.7085C16.4185 18.4017 16.3323 19.2234 16.5487 19.9589C17.2808 21.9506 18.1464 24.1569 19.2285 26.4513ZM13.3411 25.3252C13.774 26.0607 14.2508 26.7539 14.6836 27.4454C14.9 27.792 15.1164 28.1386 15.3328 28.4413C15.7217 29.0465 16.3709 29.3931 17.0642 29.3509H17.1504C17.7557 29.3069 18.3187 29.0043 18.6653 28.5292C18.8817 28.2266 18.9679 27.88 19.0119 27.5773C18.7955 27.3609 18.623 27.1005 18.4929 26.7979C17.3668 24.5035 16.5011 22.2532 15.808 20.1751C15.7217 19.9148 15.6778 19.6983 15.6355 19.4397C15.2889 19.2672 14.9 19.1793 14.5094 19.1793C14.3793 19.1793 14.2491 19.1793 14.1206 19.2232C14.0766 19.2232 13.9904 19.2232 13.9481 19.2672C13.1264 19.3974 12.4332 19.9164 12.0443 20.6959C11.6555 21.4753 11.6555 22.341 12.0443 23.1204C12.4332 23.8542 12.866 24.5897 13.3411 25.3252ZM36.8443 26.5814C36.239 25.4993 35.676 24.4612 35.1992 23.5076C34.7224 22.5557 33.9007 21.8625 32.9048 21.5159C31.909 21.1693 30.8269 21.2555 29.919 21.7763C28.0575 22.7721 26.0675 23.4214 24.0316 23.724C23.6428 23.768 23.2962 24.0267 23.0797 24.3733C22.9073 24.7199 22.8633 25.1087 23.0358 25.4993C23.729 27.0142 25.3301 27.7075 27.7969 27.6635C29.5722 27.6195 31.0432 27.1867 32.039 26.409C32.4279 26.1063 32.6883 25.7597 32.8185 25.5433C32.9047 25.3708 33.1211 25.3269 33.2953 25.3708C33.5556 25.4571 33.6419 25.7597 33.5117 25.9761C33.3392 26.2365 33.0349 26.6254 32.6021 27.0142C32.083 27.447 31.476 27.7497 30.7845 28.0101C30.1353 28.2265 29.3998 28.3989 28.6204 28.4429C28.4902 28.4869 27.1054 28.7456 25.6768 29.7854C23.685 31.2141 22.4745 33.3782 22.1279 36.2337C22.0839 36.4501 21.9115 36.6226 21.695 36.6226H21.6511C21.4347 36.5786 21.2622 36.4062 21.3045 36.1458C21.5209 34.4584 21.9977 32.9435 22.7754 31.6872C23.4247 30.6491 24.2464 29.7834 25.2 29.0902C25.5888 28.8298 25.9354 28.6134 26.282 28.4409C25.1137 28.2685 24.2481 27.9219 23.5988 27.4891C23.2962 27.8779 22.8634 28.1823 22.3866 28.3987H22.3426C21.996 28.5289 21.6071 28.6151 21.2605 28.6151C20.7415 28.6151 20.1784 28.4849 19.7456 28.2262C19.6594 28.5289 19.5292 28.8315 19.3567 29.0919C18.8377 29.8274 18.0582 30.2602 17.1926 30.3042H17.1064H16.9762C16.0243 30.3042 15.1146 29.8274 14.5956 29.0057C14.3792 28.703 14.1628 28.3564 13.9463 28.0098C13.2109 26.8838 12.4314 25.6732 11.7382 24.3747C11.089 28.5728 11.4356 33.0755 11.8684 36.3637C12.0848 38.095 12.7341 39.7824 13.7722 41.2551V41.2991C14.3774 42.2087 14.7241 43.2468 14.6818 44.3729C14.6378 48.1382 14.3792 47.9993 14.3792 47.9993H29.0093C29.0093 47.9993 28.7489 47.6633 28.7067 44.2006C28.7067 43.1186 28.8791 42.0365 29.2697 41.0406C29.6586 40.0448 30.2216 39.0929 31.001 38.3134C32.5159 36.7123 34.0748 35.2396 35.676 33.8548C37.71 31.9916 38.229 28.962 36.8443 26.5814Z" fill="#282D4D"></path><g id="icon-orange"><path d="M25.6075 11.2014L23.3807 11.2016C23.26 11.2016 23.1527 11.1076 23.1393 10.9867L21.4903 2.26911C21.4769 2.13477 21.5842 2.00042 21.7317 2.00041L27.2585 2C27.406 1.99999 27.5133 2.13432 27.4999 2.26867L25.849 10.9864C25.8356 11.1074 25.7283 11.2014 25.6075 11.2014Z" fill="#F57A47"></path><path d="M8.43086 19.8632L7.74657 21.9859C7.70632 22.1068 7.599 22.1739 7.47827 22.1471L0.817249 21.6832C0.669693 21.6563 0.589217 21.5086 0.62947 21.3742L2.33349 16.1079C2.37374 15.9735 2.53472 15.9063 2.66886 15.9601L8.31015 19.5676C8.41746 19.6214 8.47111 19.7423 8.43086 19.8632Z" fill="#F57A47"></path><path d="M39.7627 22.6084L39.0788 20.4858C39.0385 20.3649 39.0922 20.244 39.1995 20.1903L46.3326 15.9702C46.4668 15.903 46.6143 15.9702 46.668 16.118L48.3712 21.3841C48.4114 21.5184 48.3309 21.6662 48.1834 21.6931L40.0444 22.7696C39.9237 22.7965 39.8164 22.7159 39.7762 22.6084L39.7627 22.6084Z" fill="#F57A47"></path></g></g><defs><clipPath id="clip0_2724_13901"><rect width="48" height="48" fill="white" transform="translate(0.5)"></rect></clipPath></defs></svg> 