<?xml version="1.0" encoding="UTF-8"?> <svg xmlns="http://www.w3.org/2000/svg" width="48" height="49" viewBox="0 0 48 49" fill="none"><g id="Icon / grad"><g id="icon-navy"><path d="M39.3312 37.9111L30.9901 35.1585C30.8479 35.1073 30.6941 35.0973 30.5465 35.1298C30.3989 35.1623 30.2635 35.2359 30.156 35.342L24.5674 40.7971C24.4123 40.945 24.2062 41.0275 23.9919 41.0275C23.7775 41.0275 23.5714 40.945 23.4163 40.7971L17.7277 35.3754C17.6201 35.2692 17.4847 35.1956 17.3371 35.1632C17.1895 35.1307 17.0357 35.1407 16.8936 35.1919L8.66919 37.9111C7.53155 38.3312 6.51171 39.0188 5.69581 39.916C4.8799 40.8132 4.2919 41.8936 3.98148 43.0659C3.94792 43.1878 3.94249 43.3157 3.96561 43.44C3.98873 43.5642 4.03979 43.6816 4.11494 43.7833C4.19434 43.885 4.29544 43.9678 4.41088 44.0255C4.52632 44.0832 4.65318 44.1144 4.78223 44.1169H43.1514C43.2805 44.1144 43.4073 44.0832 43.5228 44.0255C43.6382 43.9678 43.7393 43.885 43.8187 43.7833C43.8939 43.6816 43.9449 43.5642 43.9681 43.44C43.9912 43.3157 43.9858 43.1878 43.9522 43.0659C43.6522 41.8989 43.0757 40.8213 42.2714 39.9241C41.4671 39.0268 40.4586 38.3364 39.3312 37.9111Z" fill="#282D4D"></path><path d="M21.1475 28.4523C20.9979 28.7409 20.9664 29.0764 21.0598 29.3878C21.1533 29.6991 21.3642 29.9619 21.648 30.1205C22.4364 30.5278 23.3131 30.7341 24.2004 30.7211C25.0819 30.7307 25.9525 30.5245 26.7361 30.1205C26.9873 29.9442 27.1649 29.6817 27.2352 29.3829C27.3055 29.0842 27.2635 28.7701 27.1173 28.5002C26.971 28.2304 26.7307 28.0238 26.4421 27.9196C26.1534 27.8154 25.8365 27.8209 25.5516 27.9351C25.1298 28.1345 24.6668 28.2317 24.2004 28.2187C23.7274 28.2457 23.2557 28.1479 22.8324 27.9351C22.5402 27.7816 22.1991 27.7498 21.8835 27.8467C21.5679 27.9435 21.3033 28.1612 21.1475 28.4523Z" fill="#282D4D"></path><path d="M19.8296 24.215C19.9899 24.1243 20.171 24.0767 20.3551 24.0767C20.5393 24.0767 20.7203 24.1243 20.8806 24.215C20.9988 24.3423 21.1422 24.4436 21.3017 24.5125C21.4612 24.5813 21.6332 24.6162 21.8069 24.6149C21.9806 24.6136 22.1522 24.5762 22.3106 24.505C22.4691 24.4337 22.6109 24.3303 22.7272 24.2013C22.8435 24.0722 22.9316 23.9203 22.986 23.7553C23.0403 23.5903 23.0597 23.4158 23.043 23.2429C23.0262 23.07 22.9736 22.9025 22.8885 22.7511C22.8034 22.5996 22.6878 22.4675 22.5488 22.3632C21.9212 21.8665 21.1405 21.6032 20.3402 21.6184C19.5399 21.6337 18.7697 21.9264 18.1614 22.4466C18.0225 22.5509 17.9068 22.683 17.8217 22.8345C17.7367 22.9859 17.6841 23.1535 17.6673 23.3264C17.6505 23.4993 17.6699 23.6738 17.7243 23.8387C17.7786 24.0037 17.8668 24.1556 17.983 24.2847C18.0993 24.4137 18.2412 24.5172 18.3996 24.5884C18.5581 24.6596 18.7296 24.6971 18.9033 24.6983C19.077 24.6996 19.2491 24.6647 19.4086 24.5959C19.5681 24.527 19.7115 24.4257 19.8296 24.2984V24.215Z" fill="#282D4D"></path><path d="M27.4534 24.215C27.6107 24.1242 27.789 24.0764 27.9706 24.0764C28.1521 24.0764 28.3305 24.1242 28.4877 24.215C28.6103 24.3247 28.7534 24.4091 28.9086 24.4634C29.0639 24.5178 29.2284 24.541 29.3926 24.5317C29.5569 24.5224 29.7177 24.4808 29.8659 24.4092C30.014 24.3377 30.1466 24.2377 30.256 24.1149C30.4574 23.8786 30.5609 23.5743 30.5454 23.2642C30.5299 22.9541 30.3966 22.6617 30.1726 22.4466C29.5506 21.9399 28.7729 21.6633 27.9706 21.6633C27.1683 21.6633 26.3905 21.9399 25.7685 22.4466C25.5524 22.6653 25.4231 22.9551 25.4047 23.2619C25.3863 23.5688 25.48 23.8719 25.6684 24.1149C25.7781 24.2402 25.9116 24.3423 26.0613 24.4153C26.2109 24.4883 26.3736 24.5308 26.5399 24.5401C26.7061 24.5494 26.8726 24.5254 27.0294 24.4696C27.1863 24.4138 27.3304 24.3272 27.4534 24.215Z" fill="#282D4D"></path><path d="M8.66919 30.0371C8.53958 30.0772 8.4217 30.1482 8.32577 30.2442C8.22984 30.3401 8.15875 30.458 8.11868 30.5876C8.07824 30.7191 8.07234 30.8587 8.10156 30.9931C8.13078 31.1275 8.19413 31.2522 8.2855 31.355C9.62008 33.0232 13.14 35.0251 15.7258 34.2744C16.4035 34.0594 16.9904 33.6251 17.394 33.0399C19.1728 34.8124 21.5034 35.9247 24.0002 36.1928C26.569 35.8909 28.9552 34.7125 30.7565 32.8564C31.1861 33.4008 31.7662 33.8069 32.4247 34.0241C33.7599 34.2466 35.1298 34.1226 36.4034 33.664C37.6769 33.2054 38.8114 32.4276 39.6982 31.405C39.7896 31.3022 39.8529 31.1776 39.8822 31.0432C39.9114 30.9088 39.9055 30.7691 39.865 30.6376C39.825 30.508 39.7539 30.3901 39.6579 30.2942C39.562 30.1983 39.4441 30.1272 39.3145 30.0871C38.3716 29.6398 37.5494 28.9732 36.9168 28.1432C36.2841 27.3132 35.8593 26.3438 35.6778 25.316C35.9164 24.7328 36.0464 24.1109 36.0615 23.4809C36.1104 22.5865 35.8115 21.7078 35.2274 21.0287V13.505C35.2281 13.4441 35.2156 13.3838 35.1906 13.3283C35.1656 13.2728 35.1288 13.2234 35.0827 13.1837C35.0365 13.1439 34.9823 13.1148 34.9237 13.0982C34.8652 13.0817 34.8037 13.0782 34.7436 13.0879L24.5674 14.8729C24.1922 14.9397 23.8082 14.9397 23.433 14.8729L13.2235 13.0879C13.1634 13.0782 13.1019 13.0817 13.0433 13.0982C12.9847 13.1148 12.9305 13.1439 12.8844 13.1837C12.8383 13.2234 12.8014 13.2728 12.7764 13.3283C12.7514 13.3838 12.7389 13.4441 12.7397 13.505V20.9452C12.1154 21.6378 11.7914 22.5498 11.8388 23.4809C11.8799 24.1449 12.044 24.7954 12.3226 25.3994C12.125 26.4068 11.6907 27.3527 11.0555 28.159C10.4202 28.9654 9.60228 29.6091 8.66919 30.0371ZM14.508 22.7136C14.7248 22.6174 14.9093 22.4609 15.0394 22.2627C15.1696 22.0645 15.2399 21.833 15.242 21.5959V18.3595C15.2432 18.295 15.2589 18.2315 15.2877 18.1738C15.3166 18.1161 15.358 18.0656 15.4088 18.0258C15.463 17.998 15.5231 17.9835 15.584 17.9835C15.6449 17.9835 15.705 17.998 15.7592 18.0258C18.4492 18.7348 21.2183 19.0992 24.0002 19.1102C26.7813 19.1046 29.5505 18.7459 32.2412 18.0425C32.2954 18.0147 32.3555 18.0002 32.4164 18.0002C32.4773 18.0002 32.5374 18.0147 32.5916 18.0425C32.6424 18.0822 32.6838 18.1328 32.7127 18.1905C32.7415 18.2482 32.7572 18.3117 32.7584 18.3762V21.4123C32.7165 21.6724 32.7567 21.939 32.8732 22.1752C32.9898 22.4114 33.1771 22.6054 33.409 22.7302C33.409 22.7302 33.6092 22.9805 33.5925 23.4643C33.6028 23.8216 33.5226 24.1756 33.3592 24.4936C33.1959 24.8115 32.9548 25.083 32.6583 25.2826C32.2221 25.4819 31.8418 25.7855 31.5508 26.1666C31.2599 26.5478 31.0673 26.9948 30.9901 27.468C30.3561 31.2382 25.6517 33.7072 23.9668 33.7072C22.2819 33.7072 17.5775 31.2048 16.9436 27.4513C16.8664 26.9781 16.6738 26.5311 16.3828 26.15C16.0919 25.7688 15.7115 25.4652 15.2754 25.266C14.9789 25.0663 14.7378 24.7948 14.5744 24.4769C14.4111 24.159 14.3309 23.8049 14.3412 23.4476C14.3201 23.1916 14.3784 22.9353 14.508 22.7136Z" fill="#282D4D"></path></g><g id="icon-orange"><path d="M4.81531 27.4514H9.81999C10.0412 27.4514 10.2534 27.3635 10.4098 27.2071C10.5662 27.0506 10.6541 26.8385 10.6541 26.6173C10.5705 23.8835 9.85686 21.206 8.56882 18.7933V12.771C8.56882 12.4391 8.437 12.1209 8.20236 11.8863C7.96772 11.6516 7.64948 11.5198 7.31765 11.5198C6.98582 11.5198 6.66758 11.6516 6.43294 11.8863C6.1983 12.1209 6.06648 12.4391 6.06648 12.771V18.7933C4.78091 21.201 4.06736 23.8725 3.9812 26.6006C3.97898 26.7115 3.99891 26.8218 4.03984 26.9249C4.08076 27.028 4.14185 27.122 4.21952 27.2012C4.2972 27.2804 4.3899 27.3434 4.49221 27.3863C4.59451 27.4293 4.70435 27.4514 4.81531 27.4514Z" fill="#F57A47"></path><path d="M4.66517 9.10087L23.2826 12.3039C23.5183 12.365 23.758 12.4096 23.9999 12.4373C24.2387 12.4538 24.4784 12.4538 24.7173 12.4373L43.3347 9.10087C43.5559 9.10087 43.768 9.013 43.9245 8.85657C44.0809 8.70014 44.1688 8.48798 44.1688 8.26676C44.1688 8.04554 44.0809 7.83338 43.9245 7.67695C43.768 7.52053 43.5559 7.43265 43.3347 7.43265L24.7173 4.17961C24.2427 4.09606 23.7572 4.09606 23.2826 4.17961L4.66517 7.43265C4.44395 7.43265 4.23179 7.52053 4.07536 7.67695C3.91893 7.83338 3.83105 8.04554 3.83105 8.26676C3.83105 8.48798 3.91893 8.70014 4.07536 8.85657C4.23179 9.013 4.44395 9.10087 4.66517 9.10087Z" fill="#F57A47"></path></g></g></svg> 