<?xml version="1.0" encoding="UTF-8"?> <svg xmlns="http://www.w3.org/2000/svg" width="32" height="33" viewBox="0 0 32 33" fill="none"><g id="Icon / LinkedIn"><path id="icon" fill-rule="evenodd" clip-rule="evenodd" d="M6 4.44043C4.89543 4.44043 4 5.33586 4 6.44043V26.4404C4 27.545 4.89543 28.4404 6 28.4404H26C27.1045 28.4404 28 27.545 28 26.4404V6.44043C28 5.33586 27.1045 4.44043 26 4.44043H6ZM11.361 9.77739C11.3685 11.0524 10.4141 11.838 9.28164 11.8324C8.21476 11.8268 7.28476 10.9774 7.29039 9.77927C7.29601 8.65239 8.18664 7.74676 9.34352 7.77302C10.5173 7.79927 11.3685 8.6599 11.361 9.77739ZM16.3729 13.4561H13.0129H13.0111V24.8692H16.5623V24.603C16.5623 24.0964 16.5619 23.5898 16.5615 23.083C16.5604 21.7312 16.5592 20.378 16.5661 19.0267C16.568 18.6986 16.5829 18.3574 16.6673 18.0442C16.9841 16.8742 18.0361 16.1186 19.2099 16.3043C19.9636 16.4223 20.4623 16.8592 20.6723 17.5699C20.8017 18.0142 20.8599 18.4923 20.8655 18.9555C20.8807 20.3523 20.8785 21.7491 20.8764 23.146C20.8756 23.6391 20.8748 24.1324 20.8748 24.6255V24.8674H24.4373V24.5936C24.4373 23.991 24.4371 23.3884 24.4367 22.7859C24.436 21.2799 24.4352 19.7739 24.4392 18.2674C24.4411 17.5867 24.368 16.9155 24.2011 16.2574C23.9517 15.2786 23.4361 14.4686 22.598 13.8836C22.0036 13.4674 21.3511 13.1992 20.6217 13.1692C20.5387 13.1658 20.4549 13.1613 20.3708 13.1567C19.9979 13.1366 19.6188 13.1161 19.2623 13.188C18.2423 13.3924 17.3461 13.8592 16.6692 14.6823C16.5905 14.7767 16.5136 14.8726 16.3988 15.0156L16.3729 15.048V13.4561ZM7.57552 24.873H11.1099V13.4635H7.57552V24.873Z" fill="#FFFEFA"></path></g></svg> 