<?xml version="1.0" encoding="UTF-8"?> <svg xmlns="http://www.w3.org/2000/svg" width="48" height="49" viewBox="0 0 48 49" fill="none"><g id="Icon / magic"><g id="icon-navy"><path d="M43.8193 5.03367C43.6195 4.64113 43.2724 4.34364 42.8539 4.20623C42.4354 4.06882 41.9796 4.10265 41.586 4.30034L24.9193 12.6337C24.5268 12.8335 24.2293 13.1806 24.0919 13.599C23.9544 14.0175 23.9883 14.4734 24.186 14.867C24.3245 15.1419 24.5364 15.373 24.7982 15.5348C25.06 15.6966 25.3615 15.7827 25.6693 15.7837C25.9308 15.7868 26.1888 15.7237 26.4193 15.6003L43.086 7.267C43.4785 7.06719 43.776 6.72012 43.9134 6.30163C44.0508 5.88315 44.017 5.42728 43.8193 5.03367Z" fill="#282D4D"></path><path d="M29.836 34.9503H11.5026C11.2816 34.9503 11.0697 35.0381 10.9134 35.1944C10.7571 35.3507 10.6693 35.5627 10.6693 35.7837V39.667C10.6605 40.244 10.7657 40.8171 10.9789 41.3534C11.1921 41.8897 11.5091 42.3785 11.9117 42.792C12.3144 43.2054 12.7946 43.5353 13.3251 43.7627C13.8555 43.9901 14.4256 44.1105 15.0026 44.117H26.336C27.5 44.0994 28.6097 43.6213 29.4219 42.7872C30.2341 41.9531 30.6827 40.8311 30.6693 39.667V35.7837C30.6693 35.5627 30.5815 35.3507 30.4252 35.1944C30.2689 35.0381 30.057 34.9503 29.836 34.9503Z" fill="#282D4D"></path><path d="M35.6693 24.9503H5.66929C5.22726 24.9503 4.80334 25.1259 4.49078 25.4385C4.17822 25.7511 4.00262 26.175 4.00262 26.617C4.00262 27.059 4.17822 27.483 4.49078 27.7955C4.80334 28.1081 5.22726 28.2837 5.66929 28.2837H9.83596C10.057 28.2837 10.2689 28.3715 10.4252 28.5278C10.5815 28.684 10.6693 28.896 10.6693 29.117V31.617C10.6693 31.838 10.7571 32.05 10.9134 32.2063C11.0697 32.3625 11.2816 32.4503 11.5026 32.4503H29.836C30.057 32.4503 30.2689 32.3625 30.4252 32.2063C30.5815 32.05 30.6693 31.838 30.6693 31.617V29.117C30.6693 28.896 30.7571 28.684 30.9134 28.5278C31.0697 28.3715 31.2816 28.2837 31.5026 28.2837H35.6693C36.1113 28.2837 36.5352 28.1081 36.8478 27.7955C37.1604 27.483 37.336 27.059 37.336 26.617C37.336 26.175 37.1604 25.7511 36.8478 25.4385C36.5352 25.1259 36.1113 24.9503 35.6693 24.9503Z" fill="#282D4D"></path></g><g id="icon-orange"><path d="M4.83626 7.45028H5.25293C5.36344 7.45028 5.46942 7.49418 5.54756 7.57232C5.6257 7.65046 5.6696 7.75644 5.6696 7.86694V8.28361C5.6696 8.50463 5.75739 8.71659 5.91367 8.87287C6.06995 9.02915 6.28192 9.11694 6.50293 9.11694C6.72394 9.11694 6.93591 9.02915 7.09219 8.87287C7.24847 8.71659 7.33626 8.50463 7.33626 8.28361V7.86694C7.33626 7.75644 7.38016 7.65046 7.4583 7.57232C7.53644 7.49418 7.64242 7.45028 7.75293 7.45028H8.1696C8.39061 7.45028 8.60257 7.36248 8.75885 7.2062C8.91513 7.04992 9.00293 6.83796 9.00293 6.61694C9.00293 6.39593 8.91513 6.18397 8.75885 6.02769C8.60257 5.87141 8.39061 5.78361 8.1696 5.78361H7.75293C7.64242 5.78361 7.53644 5.73971 7.4583 5.66157C7.38016 5.58343 7.33626 5.47745 7.33626 5.36694V4.95028C7.33626 4.72926 7.24847 4.5173 7.09219 4.36102C6.93591 4.20474 6.72394 4.11694 6.50293 4.11694C6.28192 4.11694 6.06995 4.20474 5.91367 4.36102C5.75739 4.5173 5.6696 4.72926 5.6696 4.95028V5.36694C5.6696 5.47745 5.6257 5.58343 5.54756 5.66157C5.46942 5.73971 5.36344 5.78361 5.25293 5.78361H4.83626C4.61525 5.78361 4.40329 5.87141 4.24701 6.02769C4.09073 6.18397 4.00293 6.39593 4.00293 6.61694C4.00293 6.83796 4.09073 7.04992 4.24701 7.2062C4.40329 7.36248 4.61525 7.45028 4.83626 7.45028Z" fill="#F57A47"></path><path d="M37.3363 19.1169H36.9196C36.8091 19.1169 36.7031 19.073 36.625 18.9949C36.5468 18.9168 36.5029 18.8108 36.5029 18.7003V18.2836C36.5029 18.0626 36.4151 17.8506 36.2589 17.6944C36.1026 17.5381 35.8906 17.4503 35.6696 17.4503C35.4486 17.4503 35.2366 17.5381 35.0803 17.6944C34.9241 17.8506 34.8363 18.0626 34.8363 18.2836V18.7003C34.8363 18.8108 34.7924 18.9168 34.7142 18.9949C34.6361 19.073 34.5301 19.1169 34.4196 19.1169H34.0029C33.7819 19.1169 33.57 19.2047 33.4137 19.361C33.2574 19.5173 33.1696 19.7293 33.1696 19.9503C33.1696 20.1713 33.2574 20.3833 33.4137 20.5395C33.57 20.6958 33.7819 20.7836 34.0029 20.7836H34.4196C34.5301 20.7836 34.6361 20.8275 34.7142 20.9057C34.7924 20.9838 34.8363 21.0898 34.8363 21.2003V21.6169C34.8363 21.838 34.9241 22.0499 35.0803 22.2062C35.2366 22.3625 35.4486 22.4503 35.6696 22.4503C35.8906 22.4503 36.1026 22.3625 36.2589 22.2062C36.4151 22.0499 36.5029 21.838 36.5029 21.6169V21.2003C36.5029 21.0898 36.5468 20.9838 36.625 20.9057C36.7031 20.8275 36.8091 20.7836 36.9196 20.7836H37.3363C37.5573 20.7836 37.7692 20.6958 37.9255 20.5395C38.0818 20.3833 38.1696 20.1713 38.1696 19.9503C38.1696 19.7293 38.0818 19.5173 37.9255 19.361C37.7692 19.2047 37.5573 19.1169 37.3363 19.1169Z" fill="#F57A47"></path><path d="M22.3363 8.28361H22.7529C22.8634 8.28361 22.9694 8.32751 23.0476 8.40565C23.1257 8.48379 23.1696 8.58977 23.1696 8.70028V9.11694C23.1696 9.33796 23.2574 9.54992 23.4137 9.7062C23.57 9.86248 23.7819 9.95028 24.0029 9.95028C24.2239 9.95028 24.4359 9.86248 24.5922 9.7062C24.7485 9.54992 24.8363 9.33796 24.8363 9.11694V8.70028C24.8363 8.58977 24.8802 8.48379 24.9583 8.40565C25.0364 8.32751 25.1424 8.28361 25.2529 8.28361H25.6696C25.8906 8.28361 26.1026 8.19581 26.2589 8.03953C26.4151 7.88325 26.5029 7.67129 26.5029 7.45028C26.5029 7.22926 26.4151 7.0173 26.2589 6.86102C26.1026 6.70474 25.8906 6.61694 25.6696 6.61694H25.2529C25.1424 6.61694 25.0364 6.57305 24.9583 6.4949C24.8802 6.41676 24.8363 6.31078 24.8363 6.20028V5.78361C24.8363 5.5626 24.7485 5.35064 24.5922 5.19435C24.4359 5.03807 24.2239 4.95028 24.0029 4.95028C23.7819 4.95028 23.57 5.03807 23.4137 5.19435C23.2574 5.35064 23.1696 5.5626 23.1696 5.78361V6.20028C23.1696 6.31078 23.1257 6.41676 23.0476 6.4949C22.9694 6.57305 22.8634 6.61694 22.7529 6.61694H22.3363C22.1153 6.61694 21.9033 6.70474 21.747 6.86102C21.5907 7.0173 21.5029 7.22926 21.5029 7.45028C21.5029 7.67129 21.5907 7.88325 21.747 8.03953C21.9033 8.19581 22.1153 8.28361 22.3363 8.28361Z" fill="#F57A47"></path><path d="M6.50293 14.9503C6.50433 15.181 6.56872 15.4069 6.68915 15.6037C6.80958 15.8005 6.98147 15.9607 7.18626 16.0669L9.43626 17.1836C10.0821 17.5127 10.6071 18.0378 10.9363 18.6836L12.0529 20.9336C12.157 21.1405 12.3166 21.3145 12.5137 21.436C12.7109 21.5575 12.938 21.6219 13.1696 21.6219C13.4012 21.6219 13.6283 21.5575 13.8255 21.436C14.0226 21.3145 14.1822 21.1405 14.2863 20.9336L15.4029 18.6836C15.7321 18.0378 16.2571 17.5127 16.9029 17.1836L19.1529 16.0669C19.3598 15.9629 19.5338 15.8033 19.6553 15.6061C19.7768 15.409 19.8412 15.1819 19.8412 14.9503C19.8412 14.7187 19.7768 14.4916 19.6553 14.2944C19.5338 14.0972 19.3598 13.9377 19.1529 13.8336L16.9029 12.7169C16.2571 12.3878 15.7321 11.8627 15.4029 11.2169L14.2863 8.98361C14.171 8.79023 14.0075 8.6301 13.8117 8.5189C13.616 8.4077 13.3947 8.34924 13.1696 8.34924C12.9445 8.34924 12.7232 8.4077 12.5275 8.5189C12.3317 8.6301 12.1682 8.79023 12.0529 8.98361L10.9363 11.2169C10.6071 11.8627 10.0821 12.3878 9.43626 12.7169L7.18626 13.8336C6.98147 13.9399 6.80958 14.1 6.68915 14.2968C6.56872 14.4936 6.50433 14.7196 6.50293 14.9503Z" fill="#F57A47"></path></g></g></svg> 