<?xml version="1.0" encoding="UTF-8"?> <svg xmlns="http://www.w3.org/2000/svg" width="26" height="24" viewBox="0 0 26 24" fill="none"><path d="M11.5648 10.4743L25.0109 15.5808L23.8808 18.6267L20.4356 19.3976L19.6692 22.8632L16.6413 24L11.5648 10.4743Z" fill="#F57A47"></path><path d="M9.69797 7.9149L8.89714 8.71572C8.85373 8.75914 8.78142 8.76402 8.73325 8.7255L3.67995 4.85896C3.62696 4.81562 3.61739 4.72886 3.67046 4.67579L5.65804 2.68821C5.71111 2.63514 5.79786 2.64471 5.8412 2.6977L9.70774 7.751C9.74627 7.79918 9.74139 7.87148 9.69797 7.9149Z" fill="#F57A47"></path><path d="M7.77221 10.9195L7.59777 12.0379C7.58808 12.0958 7.53502 12.1392 7.47718 12.1393L1.10972 11.9854C1.03742 11.9807 0.984446 11.918 0.989325 11.8457L1.43024 9.07371C1.44476 9.00139 1.51229 8.95313 1.58457 8.97717L7.68556 10.7846C7.74339 10.8038 7.7819 10.8616 7.77221 10.9195Z" fill="#F57A47"></path><path d="M7.97656 14.4719L8.4915 15.4789C8.52038 15.5368 8.50586 15.5994 8.45281 15.6332L3.20538 19.2527C3.14268 19.2962 3.06076 19.2721 3.02707 19.2095L1.75174 16.7088C1.71805 16.6462 1.75186 16.5642 1.81937 16.5352L7.82718 14.4094C7.88504 14.3901 7.94768 14.4141 7.97656 14.4719Z" fill="#F57A47"></path><path d="M16.4708 7.50928L15.4638 6.99434C15.406 6.96547 15.3819 6.90282 15.4012 6.84496L17.5271 0.837152C17.5513 0.764828 17.6284 0.735843 17.7007 0.769526L20.2014 2.04485C20.264 2.07854 20.288 2.16047 20.2446 2.22317L16.6299 7.46577C16.5961 7.51882 16.5286 7.52852 16.4756 7.50446L16.4708 7.50928Z" fill="#F57A47"></path><path d="M13.0154 6.61069L11.897 6.78513C11.8391 6.79482 11.7813 6.75631 11.7621 6.69848L9.95463 0.597489C9.93541 0.530021 9.97885 0.457681 10.0512 0.443161L12.8232 0.00224364C12.8955 -0.0122765 12.9629 0.0455114 12.9629 0.122636L13.1167 6.4901C13.1167 6.54794 13.0733 6.601 13.0154 6.61069Z" fill="#F57A47"></path></svg> 