<?xml version="1.0" encoding="UTF-8"?> <svg xmlns="http://www.w3.org/2000/svg" width="32" height="33" viewBox="0 0 32 33" fill="none"><g id="Icon / Youtube"><path id="icon" d="M28.7911 9.72152C28.6392 9.15806 28.3424 8.6442 27.9303 8.23108C27.5181 7.81796 27.0049 7.52 26.4418 7.36686C24.3538 6.79352 16.0004 6.78419 16.0004 6.78419C16.0004 6.78419 7.64844 6.77486 5.55911 7.32286C4.99634 7.48305 4.4842 7.78523 4.07186 8.20037C3.65952 8.61551 3.36082 9.12968 3.20444 9.69352C2.65377 11.7815 2.64844 16.1122 2.64844 16.1122C2.64844 16.1122 2.64311 20.4642 3.18977 22.5309C3.49644 23.6735 4.39644 24.5762 5.54044 24.8842C7.64977 25.4575 15.9804 25.4669 15.9804 25.4669C15.9804 25.4669 24.3338 25.4762 26.4218 24.9295C26.9851 24.7766 27.4988 24.4794 27.912 24.0671C28.3252 23.6548 28.6236 23.1418 28.7778 22.5789C29.3298 20.4922 29.3338 16.1629 29.3338 16.1629C29.3338 16.1629 29.3604 11.8095 28.7911 9.72152ZM13.3284 20.1242L13.3351 12.1242L20.2778 16.1309L13.3284 20.1242Z" fill="#FFFEFA"></path></g></svg> 