<svg width="1542" height="1035" viewBox="0 0 1542 1035" fill="none" xmlns="http://www.w3.org/2000/svg">
<g clip-path="url(#clip0_2524_25059)">
<g opacity="0.72">
<path d="M782.539 663.029L218.484 1767.17H406.978L484.125 1614.83L717.605 1590.46V1418.01L576.133 1433.24L782.946 1028.64L989.963 1433.24L848.491 1418.01V1590.46L1081.56 1614.83L1158.71 1767.17L1322.98 1767.17L782.539 663.029Z" fill="#F4F262"/>
<path d="M807.022 494.441L735.167 494.441C731.299 494.441 727.838 491.394 727.431 487.535L673.896 85.5687C673.489 81.3033 676.949 76.8347 681.631 76.8347L860.15 76.8347C864.832 76.8347 868.292 81.1002 867.885 85.5687L814.553 487.535C814.146 491.394 810.686 494.441 806.818 494.441H807.022Z" fill="#F4F262"/>
<path d="M585.554 543.188L527.54 585.639C524.487 587.873 520.212 587.467 517.566 584.827L238.49 290.918C235.437 287.465 235.844 282.184 239.304 279.137L383.626 174.126C387.494 171.486 392.786 172.298 394.821 176.767L587.589 533.235C589.421 536.688 588.404 540.953 585.35 543.188H585.554Z" fill="#F4F262"/>
<path d="M435.126 712.588L412.938 781.241C411.717 785.101 408.256 787.335 404.185 786.522L6.02861 712.995C1.34681 712.182 -1.29942 707.307 -0.0780863 703.042L54.8821 532.831C56.1035 528.565 61.3959 526.331 65.6706 527.956L431.054 702.839C434.515 704.667 436.347 708.526 434.922 712.385L435.126 712.588Z" fill="#F4F262"/>
<path d="M1129.25 781.444L1107.07 712.791C1105.84 708.932 1107.47 705.073 1110.93 703.245L1476.32 528.362C1480.59 526.128 1485.48 528.362 1487.11 533.237L1542.07 703.448C1543.29 707.713 1540.84 712.588 1535.96 713.401L1138.21 786.725C1134.34 787.538 1130.88 784.897 1129.46 781.444H1129.05H1129.25Z" fill="#F4F262"/>
<path d="M1014.45 585.235L956.435 542.784C953.381 540.55 952.567 536.285 954.196 532.832L1146.96 176.363C1149.2 172.504 1154.29 171.082 1158.16 173.723L1302.48 278.734C1306.35 281.374 1306.76 287.061 1303.3 290.514L1024.22 584.423C1021.57 587.063 1017.3 587.47 1014.24 585.235H1014.45Z" fill="#F4F262"/>
</g>
</g>
<defs>
<clipPath id="clip0_2524_25059">
<rect width="1542" height="1035" fill="white"/>
</clipPath>
</defs>
</svg>
