<?xml version="1.0" encoding="UTF-8"?> <svg xmlns="http://www.w3.org/2000/svg" width="48" height="49" viewBox="0 0 48 49" fill="none"><g id="Icon / certify"><path id="icon-navy" d="M39.4798 19.5904C39.4798 16.5315 38.5732 13.5413 36.8745 10.9975C35.1758 8.45364 32.7613 6.47036 29.9359 5.29817C27.1106 4.12599 24.0012 3.81751 21.0006 4.41169C18 5.00588 15.2428 6.47608 13.0774 8.63654C10.912 10.797 9.43552 13.5508 8.83449 16.55C8.23345 19.5493 8.53484 22.6593 9.70057 25.4874C10.8663 28.3154 12.8441 30.7344 15.384 32.4389C17.924 34.1434 20.9121 35.0569 23.971 35.0639C26.0053 35.0662 28.0201 34.6678 29.9005 33.8914C31.7809 33.1151 33.4899 31.976 34.93 30.5391C36.3702 29.1023 37.5132 27.3958 38.2938 25.5173C39.0745 23.6387 39.4775 21.6247 39.4798 19.5904ZM20.7878 24.8956L17.7285 21.9424C17.4801 21.6937 17.3406 21.3566 17.3406 21.0051C17.3406 20.6536 17.4801 20.3165 17.7285 20.0679C17.8504 19.9427 17.9962 19.8433 18.1571 19.7754C18.3181 19.7075 18.4911 19.6725 18.6658 19.6725C18.8405 19.6725 19.0134 19.7075 19.1744 19.7754C19.3353 19.8433 19.4811 19.9427 19.603 20.0679L22.6623 23.1272L29.2761 14.4974C29.378 14.3492 29.5089 14.2232 29.661 14.1272C29.813 14.0311 29.983 13.967 30.1606 13.9387C30.3382 13.9105 30.5197 13.9186 30.6941 13.9626C30.8685 14.0067 31.032 14.0857 31.1749 14.195C31.3178 14.3042 31.4369 14.4414 31.5251 14.5981C31.6133 14.7548 31.6687 14.9279 31.6879 15.1067C31.7072 15.2855 31.6898 15.4663 31.637 15.6383C31.5842 15.8102 31.4969 15.9695 31.3805 16.1066L24.7844 24.7187C24.5586 25.0264 24.2683 25.2809 23.9338 25.4645C23.5992 25.6481 23.2286 25.7563 22.8479 25.7816C22.4671 25.8068 22.0854 25.7486 21.7296 25.6108C21.3737 25.473 21.0523 25.2591 20.7878 24.984V24.8956Z" fill="#282D4D"></path><g id="icon-orange"><path d="M44.0776 36.9383L39.8865 29.6172C39.8474 29.5512 39.7917 29.4966 39.7251 29.4586C39.6584 29.4206 39.583 29.4007 39.5063 29.4007C39.4296 29.4007 39.3542 29.4206 39.2876 29.4586C39.2209 29.4966 39.1653 29.5512 39.1261 29.6172C36.9768 32.8787 33.8324 35.3595 30.1603 36.6908C30.0994 36.7128 30.044 36.748 29.9982 36.7939C29.9523 36.8397 29.9171 36.8951 29.8951 36.956C29.8641 37.013 29.8479 37.0769 29.8479 37.1417C29.8479 37.2066 29.8641 37.2704 29.8951 37.3274L33.4319 43.2515C33.6029 43.5396 33.8523 43.7731 34.1509 43.9249C34.4495 44.0767 34.7851 44.1406 35.1186 44.1091C35.4521 44.0776 35.7698 43.952 36.0348 43.747C36.2997 43.5419 36.5009 43.2659 36.615 42.9509L38.0828 38.9013L42.3092 39.6086C42.6425 39.6699 42.9863 39.6341 43.2998 39.5056C43.6133 39.3771 43.8833 39.1612 44.0776 38.8836C44.2678 38.5948 44.3691 38.2567 44.3691 37.911C44.3691 37.5652 44.2678 37.2271 44.0776 36.9383Z" fill="#F57A47"></path><path d="M8.88652 29.5464C8.84083 29.4934 8.78362 29.4515 8.71926 29.4239C8.6549 29.3963 8.58509 29.3838 8.51516 29.3873C8.44001 29.3866 8.36604 29.4059 8.30079 29.4432C8.23554 29.4805 8.18136 29.5344 8.14379 29.5995L3.86427 36.9383C3.69805 37.2297 3.61811 37.5622 3.63376 37.8973C3.64942 38.2323 3.76003 38.556 3.95269 38.8305C4.14702 39.1081 4.417 39.324 4.7305 39.4525C5.04401 39.5811 5.38784 39.6168 5.72109 39.5556L9.94756 38.8482L11.4153 42.8979C11.5294 43.2128 11.7307 43.4889 11.9956 43.6939C12.2605 43.899 12.5782 44.0246 12.9117 44.0561C13.2452 44.0875 13.5808 44.0237 13.8794 43.8718C14.178 43.72 14.4274 43.4865 14.5984 43.1985L18.1352 37.2567C18.1662 37.1997 18.1824 37.1358 18.1824 37.071C18.1824 37.0061 18.1662 36.9423 18.1352 36.8853C18.085 36.7655 17.9898 36.6702 17.87 36.62C14.1939 35.2876 11.0441 32.8074 8.88652 29.5464Z" fill="#F57A47"></path></g></g></svg> 