<?xml version="1.0" encoding="UTF-8"?> <svg xmlns="http://www.w3.org/2000/svg" width="24" height="24" viewBox="0 0 24 24" fill="none"><path d="M15.0018 20.3978H9.09035C8.42808 20.3978 7.88963 19.8623 7.88963 19.1971V18.2412C7.88963 18.0655 7.80612 17.9014 7.65927 17.7833C5.87115 16.3724 4.80289 14.2359 4.80289 12.0648C4.80289 8.05951 8.0336 4.8 12.0014 4.8C15.9693 4.8 19.2 8.05951 19.2 12.0648C19.2 14.3107 18.1922 16.3954 16.4329 17.7833C16.2831 17.9014 16.2025 18.0655 16.2025 18.2412V19.1971C16.2025 19.8594 15.6641 20.3978 15.0018 20.3978ZM13.2022 2.40144V1.20072C13.2022 0.538452 12.6637 0 12.0014 0C11.3392 0 10.8007 0.538452 10.8007 1.20072V2.40144C10.8007 3.06371 11.3392 3.60216 12.0014 3.60216C12.6637 3.60216 13.2022 3.06371 13.2022 2.40144ZM7.80325 4.72513C8.37625 4.394 8.57493 3.65975 8.2438 3.08674L7.64488 2.04727C7.31374 1.47427 6.57949 1.27558 6.00648 1.60672C5.43348 1.93785 5.2348 2.67211 5.56593 3.24511L6.16485 4.28458C6.38657 4.67043 6.78969 4.8835 7.20432 4.8835C7.40588 4.8835 7.6132 4.83167 7.80325 4.72513ZM4.72802 7.80036C5.05915 7.22735 4.86047 6.4931 4.28747 6.16197L3.248 5.56305C2.67211 5.23191 1.94074 5.42771 1.6096 6.0036C1.27847 6.5766 1.47715 7.31086 2.05016 7.64199L3.08963 8.24091C3.27967 8.35033 3.48411 8.40216 3.68855 8.40216C4.10319 8.40216 4.5063 8.1862 4.72802 7.80036ZM17.838 4.28746L18.437 3.24799C18.7681 2.67498 18.5723 1.94073 17.9964 1.6096C17.4234 1.27846 16.6891 1.47427 16.358 2.05015L15.7591 3.08962C15.428 3.66263 15.6238 4.39688 16.1996 4.72801C16.3897 4.83743 16.5941 4.88926 16.7986 4.88926C17.2132 4.88926 17.6163 4.67331 17.838 4.28746ZM20.9104 8.24091L21.9499 7.64199C22.5229 7.31086 22.7215 6.5766 22.3904 6.0036C22.0564 5.42771 21.3221 5.23191 20.752 5.56305L19.7125 6.16197C19.1395 6.4931 18.9409 7.22735 19.272 7.80036C19.4937 8.1862 19.8968 8.39928 20.3115 8.39928C20.5159 8.39928 20.7203 8.34745 20.9104 8.24091ZM15.5978 22.7993C15.5978 22.137 15.0623 21.5986 14.3971 21.5986H9.60001C8.93774 21.5986 8.39929 22.1341 8.39929 22.7993C8.39929 23.4644 8.93774 24 9.60001 24H14.4C15.0623 24 15.5978 23.4644 15.5978 22.7993Z" fill="#E4E10F"></path></svg> 