<?xml version="1.0" encoding="UTF-8"?> <svg xmlns="http://www.w3.org/2000/svg" width="24" height="24" viewBox="0 0 24 24" fill="none"><path d="M23.8107 7.78321L8.99401 2.86581C8.85646 2.82283 8.71031 2.88301 8.65013 3.01196L7.54114 5.38039L9.08427 5.99937L9.5442 5.01073C9.57859 4.93765 9.66026 4.90327 9.73334 4.92906L21.2703 8.9008C21.3606 8.93089 21.3993 9.03406 21.3563 9.12002L16.0778 17.8888L11.6075 7.97664L0.36706 4.15964C0.139243 4.08227 -0.0713797 4.31008 0.0231857 4.5293L4.45486 14.9874C4.98357 16.5606 6.18713 17.8157 7.73886 18.4089L15.8457 21.1083C16.1939 21.2244 16.5764 21.0783 16.757 20.7602L23.9697 8.17437C24.0471 8.02393 23.9697 7.83479 23.8107 7.78321Z" fill="#57B98F"></path><path d="M19.0824 11.2349L19.5896 9.72613L12.8884 7.43936L15.605 13.9773L17.0751 13.3755L17.3974 11.6647L19.0824 11.2349Z" fill="#57B98F"></path></svg> 