<?xml version="1.0" encoding="UTF-8"?> <svg xmlns="http://www.w3.org/2000/svg" width="48" height="49" viewBox="0 0 48 49" fill="none"><g id="Icon / pages"><g id="icon-navy"><path d="M5.25044 35.6741C13.7266 35.9033 22.0349 38.0906 29.525 42.065C23.7506 37.1785 16.9434 33.6648 9.61545 31.7879L8.17886 31.5853L2.85613 35.7478C3.74018 35.6925 4.45848 35.6741 5.25044 35.6741Z" fill="#282D4D"></path><path d="M34.5715 2.11694L29.304 8.61841L22.1579 17.4958C25.6393 19.6227 28.7499 22.304 31.3668 25.4338C31.6983 25.8206 31.993 26.2074 32.2877 26.5941C32.8586 27.3677 33.3559 28.1228 33.8164 28.8779C35.4078 31.4199 36.4653 34.2591 36.9245 37.2228C37.3836 40.1865 37.2347 43.2126 36.4869 46.1169L46.101 23.2605C46.101 23.2605 46.101 6.92398 34.5715 2.11694Z" fill="#282D4D"></path></g><g id="icon-orange"><path d="M10.0391 30.0015C18.7443 32.3 26.719 36.7819 33.2086 43.0228C29.212 34.8269 19.248 25.8206 10.4259 23.0396C10.0391 22.9106 9.65231 22.8186 9.28395 22.7265L1.89844 29.0253C4.64062 29.0345 7.37247 29.362 10.0391 30.0015Z" fill="#F57A47"></path><path d="M6.70547 20.369C8.20113 20.5094 9.67709 20.812 11.1073 21.2715C20.5925 24.2183 31.3668 34.0165 35.2898 42.9676C35.5514 40.5881 35.3893 38.1812 34.811 35.8583C33.1902 29.3384 28.5858 23.6842 21.1082 19.0613C20.8945 18.9168 20.7136 18.729 20.5772 18.51C20.4408 18.2911 20.3518 18.046 20.3162 17.7905C20.2745 17.5344 20.2875 17.2724 20.3541 17.0217C20.4208 16.7709 20.5396 16.5371 20.703 16.3355L27.9043 7.47656C26.6772 6.79856 25.3637 6.29049 23.9997 5.96631L6.70547 20.369Z" fill="#F57A47"></path></g></g></svg> 